<svg width="16" height="8" viewBox="0 0 16 8" fill="none" xmlns="http://www.w3.org/2000/svg">
<path fill-rule="evenodd" clip-rule="evenodd" d="M0.249944 1.42237L6.79504 7.57672L6.80132 7.58248C7.12214 7.87122 7.51003 8 7.89233 8C8.29531 8 8.67847 7.83258 8.9834 7.55814L15.5344 1.42264L15.539 1.41812C15.8326 1.12446 15.9148 0.607154 15.5634 0.255739C15.2711 -0.0365603 14.7572 -0.119318 14.4059 0.226497L7.89233 6.35117L1.3685 0.216817L1.36168 0.21097C1.04167 -0.0633253 0.541709 -0.0646793 0.221291 0.255739L0.210687 0.266343L0.200927 0.27773C-0.0733677 0.597741 -0.0747207 1.0977 0.245697 1.41812L0.249944 1.42237ZM15.3926 0.911168C15.3731 0.995097 15.3289 1.07572 15.2629 1.14175L8.72218 7.26758C8.47813 7.48723 8.18526 7.60926 7.89239 7.60926C7.59952 7.60926 7.30665 7.51164 7.0626 7.29199L0.521873 1.14175C0.406456 1.02633 0.369013 0.86636 0.402019 0.722033C0.368913 0.866425 0.406332 1.02652 0.521816 1.142L7.06254 7.29224C7.3066 7.51189 7.59946 7.60951 7.89233 7.60951C8.1852 7.60951 8.47807 7.48748 8.72213 7.26783L15.2628 1.142C15.3289 1.0759 15.3731 0.995187 15.3926 0.911168Z" fill="#637381"/>
</svg>
